<svg version="1.0" xmlns="http://www.w3.org/2000/svg" width="400" height="424" viewBox="0 0 300 318"><path d="M85.6 15.55c-1.3 1.3-1.6 3.2-1.4 8.2.25 5.8.05 6.6-1.75 7.3C76 33.4 77.6 47.85 84.5 49.6c1.6.4 3.5 3.1 6.8 9.75 3.75 7.55 5.2 9.5 7.9 10.7 2 .9 4.55 3.4 6.45 6.45 1.75 2.75 4.6 6.9 6.3 9.25 3.35 4.6 3.05 5.55-.65 2.1-1.25-1.2-2.6-1.85-3-1.45-1.1 1.05.95 3.8 4.7 6.35 1.85 1.25 4.15 3.65 5.15 5.3 1.15 1.85 3 3.25 4.85 3.6 3.95.8 3.8 1.45-1.5 6.7-2.5 2.45-4.5 5.35-4.5 6.55 0 1.85-.6 2.1-4.75 2.1-8 .05-15.6 4.2-14.75 8.05.75 3.3-1.3 5.85-4.7 5.9-.9.05-1.8.8-2 1.7-.2 1.3-1.5 1.7-5.3 1.75-3.85.1-5 .45-4.9 1.65.1 1.15-.6 1.45-2.75 1.15-2.6-.4-2.85-.15-2.85 2.75 0 3.15-2.25 8.5-4.4 10.5-.6.6-5.15 4.65-10.1 9.05-4.95 4.4-12.55 11.25-16.85 15.25-6.25 5.8-8.3 7.2-10 6.7-4.75-1.45-10.75-4.95-13.8-8.1-3.9-4-6.55-4.3-7.85-.8-1.5 3.95-1.5 4 6.75 10.25 15.05 11.4 26.3 17.05 24.8 12.4-.3-1 .1-2.7.9-3.75.8-1.05 1.5-2.9 1.5-4.1.05-1.15 1.15-2.85 2.55-3.75 1.35-.9 4.5-3.65 6.95-6.1 4.65-4.65 4.9-4.75 16.2-6.55 6.45-1 7.4-1.45 10.15-4.85 1.9-2.4 4.45-4.15 7.1-4.95 2.25-.65 4.55-2.1 5.1-3.2 1.3-2.4 3.6-2.55 4.85-.3.6 1.15 1.5 1.4 2.8.9 1-.45 3.95-.7 6.55-.6 2.9.1 6.4-.55 9.3-1.85 3.85-1.7 5.85-1.95 12.4-1.45 8.25.65 8.95 1 19.85 9.85 4.85 3.95 5.6 5.05 8.3 13 1.85 5.4 1.95 23.3.15 24-.75.25-1.05.95-.7 1.5.8 1.35-8.95 10.65-12 11.4-1.6.4-2.7 1.6-3.15 3.3-.35 1.45-2.35 4.9-4.4 7.6-3.45 4.55-3.75 5.55-4.4 14-.8 9.85-2.1 13.15-10.8 27.55l-4.45 7.35 1.35 6.45c2.75 13.2 8.9 19.15 15.25 14.7 1.9-1.3 2.2-2.15 1.65-4.75-2.8-13-2.75-15.45.65-21.95 6.8-12.95 26.1-32.65 32-32.65 3.75 0 12.3-8.35 13.55-13.15.5-1.95 1.75-3.75 3.05-4.35 1.35-.6 2.2-1.85 2.2-3.25 0-1.25.45-2.25.95-2.25 1.55 0 13.7-25.8 15.7-33.25 1.15-4.4 2.25-6.75 3.2-6.75 1.75 0 1-18.5-1-25.15-1.1-3.6-1.4-3.85-4.95-3.85-3.75 0-7-3.8-4.1-4.75 7-2.35 10.25-9.45 5.4-11.85l-2.3-1.15 3.4-2c4-2.35 5.65-8.2 3.25-11.8-2.75-4.25-.9-10.85 4.1-14.45 2.45-1.75 7.25-5.65 10.65-8.65 3.85-3.4 10.35-7.5 17.2-10.9 12.5-6.15 14.8-7.45 23.75-13.3 3.5-2.3 7.3-4.15 8.45-4.15 5.95 0 14.65-10.6 12.3-15-1.05-1.95-.75-2.65 2.55-6.05 2.35-2.4 3.5-4.4 3.1-5.4-.65-1.7-4.2-2.1-5.1-.6-.35.55-2 1.95-3.7 3.15l-3.05 2.15 1.6-3.05c2.1-4 2.05-6.8-.1-7.65-2.05-.8-3.3.7-7.35 8.55-1.55 3.1-3.55 5.9-4.45 6.25-.85.35-2.25 2.2-3.05 4.15-1.1 2.55-2.1 3.5-3.8 3.5-1.25 0-4.75 1.3-7.7 2.9-10.5 5.55-15.55 7.85-24.45 11.1-4.95 1.8-11.1 4.35-13.7 5.65-5.9 2.95-5.8 2.95-5.8-.45 0-4.9-5.7-7.4-7.9-3.45-1.45 2.6-2.45.75-1.35-2.45.5-1.55.6-3.95.2-5.3-10.5-35.2-14.45-45.25-16.4-42.1-.55.95 4.4 19.45 7 25.95 2.5 6.3 1.2 7.1-2.55 1.6-14.6-21.4-43.1-24.95-62.15-7.7C121.25 40.9 115 51.6 115 55.3c0 3.15-1.6 4.4-2.25 1.8-.3-1.05-3.65-4.45-7.5-7.6C96.8 42.6 95.4 37.75 99 28.2c2.55-6.65 2.55-9.85.05-11.2-2.35-1.2-4.6 1.5-5.65 6.8-1.05 5.15-2.3 3.7-2.6-3.05-.35-6.75-2-8.4-5.2-5.2zm71.95 19.4c-.35.5 1.45.7 4.4.35 4.65-.5 5.1-.35 6.2 2.1.65 1.45 1.7 2.6 2.4 2.6.95 0 3.45 6.8 3.45 9.45 0 1.55-2.15.2-3.55-2.2-.85-1.5-1.35-2-1.1-1.1.6 1.95-3.25 5.85-5.7 5.85-1.65 0-7.3 2.7-10.9 5.25-1.55 1.1-2.8.15-10.15-7.75l-8.4-9 2.35-2.25c3.5-3.3 22.9-6.4 21-3.3zm19 6.5c1.6 3.8 2 11.55.55 10-.8-.85-3.1-10.15-3.1-12.5 0-1.95 1.15-.85 2.55 2.5zM137.6 47.3c6.75 7.3 9.4 10.85 9.35 12.65 0 .9-1.35-.15-3.15-2.45-1.75-2.2-5.55-6.3-8.5-9.15-2.9-2.85-5.3-5.45-5.3-5.75 0-1.95 3.35.1 7.6 4.7zm138.65-1.45c-.15.65.3 1.05 1 .9.7-.15 1.15.3 1 1-.15.7.3 1.25.95 1.25.65 0 .15.95-1.1 2.15-1.85 1.7-2.05 2.3-.95 3.05 1.1.75 1.05.85-.15.55-.85-.25-1.5-1.6-1.55-3.15 0-1.5-.65-3.1-1.4-3.55-1.65-1.05-.55-4.4 1.2-3.75.7.25 1.15.95 1 1.55zm-91.3 3.3c1.25 1.7 2.35 3.55 2.45 4.2.1.65.5 1.7.95 2.4 1 1.6.6 1.6-3.2-.3-3.75-1.9-3.8-1.95-4.65-6.7-.9-4.55.9-4.4 4.45.4zm-52.1-.15c2.25 1.65 5.8 5.5 7.8 8.55l3.7 5.55-2.1 3.7c-2.85 5-4.1 5-10.7.05-3.15-2.35-6.4-4.35-7.2-4.5-.85-.1-1.85-.55-2.2-.95-.35-.4.2-.4 1.3 0 1.85.65 1.85.6.15-1.3-2.1-2.3-1.6-5.9 1.4-10.9 2.4-3.95 2.7-3.95 7.85-.2zm61.45 2.8c1.8 1.95 4.7 8.4 4.7 10.35 0 1.15-4.25-5-6.95-10-1.35-2.6.05-2.85 2.25-.35zm-12.8 6.4c4.2 1.9 3 5.15-2.15 5.85-2.3.3-4.8 1.1-5.6 1.75-1 .8-1.7.85-2.45.1-1.85-1.85-5.7-.55-7.1 2.35-1.35 2.85-2.65 3.45-3.7 1.75-1.05-1.75-5.45-1.1-6.75 1-.65 1.1-2.15 2-3.25 2-2.2 0-6.3 2.45-8.2 4.95-.95 1.25-1.4 1.3-2.45.3-1-1.05-.15-2.4 4.6-7.2 11.85-11.95 27.3-17.3 37.05-12.85zm-67.6 3.5c2.45 1.4 1.55 8.6-1.35 10.85-5.55 4.2-6 .6-.9-6.55l2.55-3.5-3 3.15c-1.65 1.7-3.45 3.95-4 5-.6 1-1.35 1.5-1.75 1.1-1-.95 1.3-6.25 3.6-8.3 1.05-.95 1.65-2.15 1.3-2.65-.65-1.1-7.35 5-7.35 6.65 0 .6.5.35 1.1-.45.9-1.25 1-1.2.5.35-.35 1-.6 2.1-.6 2.45 0 .35-.7-.35-1.6-1.6-1.15-1.7-1.3-2.65-.5-3.6.6-.7.85-1.5.55-1.8-.3-.3.9-1.75 2.65-3.2l3.15-2.7 2.65 2.3c1.4 1.25 2.75 2.4 3 2.5zm74.1 2.35c0 1.1-.65 1.95-1.5 1.95-1.6 0-1.85-.9-.9-3.4.8-2.05 2.4-1.05 2.4 1.45zm55.15.95c.6 1.65 1.45 3 1.9 3 .5 0 .45-1.15-.05-2.5-.95-2.5-.95-2.5 1.5-.9 1.6 1.05 2.5 1.2 2.5.5 0-.85.55-.9 2.05-.05 3.05 1.6 2.05 3.8-3.05 6.65-3.8 2.15-4.1 2.2-2 .4l2.5-2.15-2.5.95c-4.2 1.5-11.05 5.75-10.4 6.4.35.3-.65.9-2.25 1.2-4.75 1.05-6.65 2.05-13.9 7.45-11.7 8.7-13.55 10.35-12.35 11.1.65.4-.5 1.85-3 3.55-2.2 1.6-4.05 3.3-4.1 3.75 0 .5.6.4 1.35-.2 1.8-1.5 2.8-.35 1.65 1.85-.5.95-.6 2.1-.2 2.6.4.45-.1.25-1.05-.5-2-1.55-4.75 0-4.75 2.6 0 .8-.55 1.25-1.25 1.05-.7-.25-1.2-1.1-1.1-1.85.65-5.4 1.6-8.9 2.4-8.9.5 0 .95-.8.95-1.75s1.4-3.1 3.1-4.7c2.9-2.75 3-3 1.3-4.25-.95-.7-1.35-1.3-.85-1.3.55 0 .35-.4-.35-.85-1.05-.7-1.1-1.6 0-5 1.55-5.05 3.5-5.35 4.35-.65.65 3.45 2.05 5.25 3.15 4.15.3-.35 0-2-.75-3.75-1.15-2.8-1.1-3.3.5-4.5 2.15-1.55 3.55-1 3.55 1.4.05 3.25 1.55 4.5 3.85 3.25 1.2-.6 2.15-1.55 2.15-2.1 0-.7-.65-.7-1.9 0-2 1.1-3.05-.85-3.1-5.7 0-3.65 3.7-2.95 4.5.8.9 4 2.55 4.5 7.45 2.35 4.45-1.95 5.45-5.2 2.5-8.45-1.3-1.45-1.3-1.8-.15-2.25.9-.35 2 .75 3.05 2.95 1.85 3.8 5.35 4.4 4.95.8-.15-1.05 0-1.4.3-.7 1.45 3.25 7.65-.9 6.35-4.25-.45-1.1-.85-2.55-.9-3.25-.1-2.25 1.05-1.3 2.1 1.75zm-2.65 1c.75 2.35-.1 4-2 4-1.55 0-2.95-3.45-2-5 1.05-1.7 3.35-1.1 4 1zm-112.25 3.15c5.3 3.45 7.55 7.15 5.65 9.45-2.85 3.45-9.15.6-11.3-5-3.2-8.35-1.95-9.3 5.65-4.45zM233.95 72c0 1.15-.35 1-1.5-.45-.8-1.05-1.45-2.85-1.4-4 .05-2.55 2.9 1.85 2.9 4.45zm-63.55-3.45c.3.9-.1 1.8-1 2.1-1.85.75-3.9-1.05-2.95-2.55 1-1.6 3.25-1.35 3.95.45zM184 70c2.35 2.35 2.75 9.15.65 10.85-5.1 4.3-11.65 1.15-11.65-5.5 0-6.7 6.5-9.85 11-5.35zm13.7 1.4c1.15 1.3 2.7 2.6 3.45 2.85s1 .85.55 1.35c-1.2 1.25-5.85-1.75-6.8-4.35-1.1-2.95.2-2.85 2.8.15zm-6.15 2.3c.85 2.05 1.35 4.65 1.15 5.75-.25 1.4-.8.55-1.7-2.65-.75-2.55-1.75-4.45-2.2-4.2-.95.6-1.1-1-.15-1.95 1.05-1.05 1.25-.85 2.9 3.05zm-77.3 2.55c-4.65 4.85-6 3-1.6-2.25 1.95-2.35 2.85-2.8 3.45-1.85.55.85-.15 2.3-1.85 4.1zm46.05-3.85c1 2.6-3.35 4.95-4.85 2.55-.75-1.25 1.3-3.95 3.05-3.95.7 0 1.5.6 1.8 1.4zm60.45 1.8c.7 1.8.85 3.6.4 4.05-.5.5-1.35-.95-1.9-3.2-1.25-4.8-.2-5.4 1.5-.85zm6.6-1.8c.25.8-.35 2.2-1.4 3.15-1.75 1.6-3.95-.7-3.95-4.1 0-1.15 4.85-.25 5.35.95zM167.7 76c-.3 1.1-.05 2.3.5 2.65.6.35-.4 1.25-2.2 2-3.55 1.5-4.7 1.7-3.7.7.4-.35.15-1.3-.55-2.1-.95-1.2-.75-1.85 1.15-3.35 3.1-2.55 5.5-2.5 4.8.1zm-48.25 4.5c1.6 4.25 1.65 4.75.15 6.4-2.1 2.3-2 2.65.5 2.85 3.45.25 5.1 2.35 4.7 5.85-.2 1.8-.05 3.05.4 2.75 2.7-1.65-.65-9.35-4.05-9.35-1.1 0-1.25-.3-.45-1.1 2.85-2.85 7.95 4.55 6.7 9.7-.35 1.35-.15 2.4.4 2.4 1.35 0 2.05-5.75.8-7-.55-.55-.65-1-.25-1 .75 0-.6-1.8-3.7-4.95-2.1-2.1-.8-3.55 2.35-2.55 2.3.75 4.4 4.05 3.5 5.5-.35.55.15 1 1.05 1 1.45 0 1.5.25.3 1.7-.9 1.15-.95 1.45-.1.95 2.1-1.3 1.45 3.15-.8 5.4-2.1 2.1-3.7 2.05-8.9-.4-2.85-1.35-3.9-3.65-1.65-3.65 2.2 0 2-2.1-.2-2.65-3.45-.9-8.55-9.8-7.15-12.5 3.1-5.95 3.9-5.9 6.4.65zm37.75-1.7c4.2 4.2.1 13.2-6.05 13.2-5.65 0-8.25-8.15-4.05-12.65 2.4-2.55 7.8-2.85 10.1-.55zm-17.5 1c1.25.8.7 5.2-.65 5.2-1.85 0-4-3.65-2.85-4.8 1.4-1.4 1.85-1.45 3.5-.4zm51.3 1.7c.7.85.95 2.55.55 4.1-.75 3.1-1.5 2.6-3.1-2.1-1.35-3.85.1-4.95 2.55-2zm8.25 3.45c-1.6 3.25-1.7 4.05-.55 4.05.75 0 1.15.45.8 1-.35.55.1 1 .95 1 2.5 0 1.8 1.75-1.45 3.65-2.1 1.25-2.85 2.3-2.45 3.55.4 1.2.05 1.8-1 1.8-1.4 0-2.1 1.9-1.6 4.4.1.5-.45 1.3-1.15 1.7-1 .65-1 1.1-.05 2.05.9.9.9 1.55.1 2.55-.8.95-.8 1.3.1 1.3.65 0 .9.45.55 1-1.1 1.8-3.25 1.05-3.85-1.35-.4-1.45.55-5.5 2.25-10.25 1.6-4.35 3.45-10.7 4.1-14.1.85-4.25 1.75-6.3 2.85-6.55 2.5-.6 2.55-.15.4 4.2zM171 86.5c0 4.15-2.2 4.7-5 1.25-2.15-2.7-1.05-4.75 2.6-4.75 2.05 0 2.4.5 2.4 3.5zm-33 2.1c0 1.35-.45 2.4-1 2.4s-1-.85-1-1.9c0-1.05-.3-2.75-.7-3.75-.6-1.65-.45-1.7 1-.5.95.8 1.7 2.45 1.7 3.75zm50-.1c1.4 1.7 0 6.5-2 6.5-.55 0-1 .65-1 1.4 0 1.5-5.5 6.6-7.1 6.6-.5 0-.9-1.9-.95-4.25 0-2.35-.7-6.05-1.5-8.25-1.75-4.9-1.75-4.5-.05-4.5.75 0 3.15 2.1 5.35 4.7l3.95 4.7 1.8-2.75c1.35-2.1 1.5-3.05.65-3.9-.85-.85-1.15-.65-1.15.8-.05 1.6-.2 1.7-.95.5-.65-1-.55-1.8.25-2.35.75-.55.35-.7-1.05-.4-2.15.5-2.95-.3-1.6-1.6.75-.8 3.6.7 5.35 2.8zm-23.9 2.75c.05 1.8 0 4.7-.05 6.45-.1 1.8.6 4.6 1.55 6.25 1 1.65 1.5 3.3 1.1 3.7-1.55 1.5-11.55 1.5-17.6-.05-7.65-1.95-7.1-1.95-7.2.15-.05 1.05-.25 1.25-.55.5-.3-.7-.85-1.05-1.25-.8-.45.25-.75-.2-.75-1.05 0-.9.55-1.25 1.5-.9 1.2.45 1.15.15-.25-1.4-2.45-2.7-3.15-9.15-1.35-12.6l1.45-2.75.7 5.85c1.25 10.95 2.7 13.05 4.05 5.95.65-3.7 2.55-5.85 2.55-3 0 7.8 4.8 11.55 8.65 6.75 1-1.25 1.25-1.1 1.55.85.2 1.3.95-1.25 1.65-5.65 1.95-12.05 4-16.05 4.25-8.25zm23.85 12.9c-1.8 3.5-2 4.75-1.1 8.25 2.7 10.8 3.2 13.95 2.35 14.8-3.3 3.3-20.55 4.3-30.3 1.75-3.5-.95-3.6-1.05-3.5-5.7.05-2.6-.25-6.65-.65-9-.65-3.45-.5-4.25.75-4.25.9 0 1.5.9 1.55 2.25 0 1.25.9 4.05 1.95 6.25 1.05 2.2 1.95 4.55 1.95 5.2.1 2.2 3.2 4.3 6.5 4.3 5.4 0 6.1-1.75 4.2-11.2-1.8-9.05-1.85-9.05 3.85-10.8 2.2-.7 5.35-2 7-2.9 1.65-.85 3.9-1.9 5-2.25 1.1-.35 2.1-.7 2.25-.75.15-.05-.65 1.75-1.8 4.05zm-65.35 6.95c-3.85 4.55-3.45 5.9 1.9 5.9 3.85 0 4.5.3 4.5 2 0 1.35.65 2 2 2 1.85 0 2.4-.9 2.15-3.5-.15-1.4 3.7-3.7 4.9-2.95.5.3.95 1.25.95 2.15 0 1.1.7 1.4 2.55 1.05 2.15-.4 2.65-.05 3.15 2.4.3 1.7 1.85 3.8 3.7 5.1 1.7 1.15 3.45 2.65 3.85 3.2.4.6.75.75.75.4s1.7-.05 3.75.65c5.15 1.8 5.35 4.45.5 6.85-2.05 1-3.2 1.25-2.5.55 2.45-2.55 1.35-4.75-3.3-6.85-2.55-1.1-4.3-2.45-3.95-3 .35-.6-.05-.8-.95-.45-1.4.55-2.05-.55-1.65-2.85.2-1.3-1.6-.8-2.9.75-1.55 1.85-5.65 1.95-6.7.15-1.2-2-8.4-2.9-9.7-1.2-.6.8-2.2 1.55-3.5 1.75-4.8.6-5.2-10.2-.6-14.8 3.45-3.45 4.15-2.95 1.1.7zM141 113c.35 4.1.05 4.55-1.45 2.4-.8-1.15-1.2-3.1-.85-4.3.7-2.7 2.05-1.55 2.3 1.9zm13.4 6.5c.6 4.85.55 4.95-1.05 2.7-1.65-2.3-2.6-7.95-1.6-9.6.85-1.4 1.95 1.5 2.65 6.9zm47.55-3.25c-.1 2.7-.25 2.95-.95 1.25-.75-1.7-.85-1.75-.95-.25-.1 2.7-2.05 2.05-2.05-.65 0-2.2 1.05-3.3 3.25-3.5.4-.05.7 1.35.7 3.15zm3.85-1.1c-.45 3.2-2.8 3.55-2.8.45 0-1.7.55-2.6 1.55-2.6 1.05 0 1.5.75 1.25 2.15zm-9.95 3.95c-.95.6-1.55.15-2-1.4l-.65-2.2-.1 2.25c-.1 2.75-2.1 3.05-2.1.35 0-2.9 5.35-4.55 5.85-1.8.15 1.1-.3 2.35-1 2.8zm-85.45 3.05c-.9 1.45 1.6 3.85 4 3.85 3.2 0 9.75 21.8 7.2 23.95-.9.7-1.9-1.55-3.95-8.75-4.25-14.9-4.1-14.7-11.45-14.7-5.75 0-6.15-.15-5.55-2 .3-1.1.65-2 .7-2.05.1 0 1.75-.75 3.65-1.6 3.45-1.6 6.7-.8 5.4 1.3zm4.05 0c-.45 1.4-.3 1.9.45 1.4.6-.35 1.1-.2 1.1.4 0 1.4-4.3.7-4.8-.8-.2-.65.35-1.15 1.2-1.15.9 0 1.6-.45 1.6-1s.25-1 .55-1c.35 0 .3.95-.1 2.15zm83.55.35c0 1.85-.55 2.5-2 2.5-2.55 0-2.75-3.65-.25-4.3.95-.25 1.85-.5 2-.6.15-.05.25 1 .25 2.4zm5-.75c-.05 1.5-.15 1.55-1 .25s-.95-1.25-1 .25c0 .95-.45 1.75-1 1.75s-1-.9-1-2c0-1.35.65-2 2-2 1.25 0 2 .65 2 1.75zm-71.45 8.75 3.95 3.3.35 9.6.35 9.6h-4.5c-2.45 0-4.9-.55-5.45-1.25-.8-.95-7.25-23.25-7.25-24.95 0-1.8 9.25.9 12.55 3.7zm10.9-.6c3.5 6.75 20.4 18.5 29.55 20.55 1.4.3 1.95.25 1.25-.05s-1-1-.7-1.5c.3-.5.1-.9-.5-.9-.55 0-1.05-.55-1.05-1.2 0-.95.25-.95 1.2 0 1.85 1.85 3.35 1.45 4.8-1.3 1.5-2.85 2.55-3.15 3.35-1.05.3.85-.95 2.95-3 5-3.5 3.5-3.55 3.7-2.9 9.3.55 5.15.5 5.5-.7 3.25-.7-1.4-7.35-7.3-14.75-13.2-21.25-16.9-22.6-18.2-20.95-20.1 2.05-2.3 2.7-2.1 4.4 1.2zm60.35 1c-.65 3.2-10.6 7.4-18.85 7.9l-7.6.45.45-3.5c.4-3.5.45-3.55 6.05-4.05 3.1-.3 8.35-1.15 11.65-1.95 6.75-1.5 8.75-1.25 8.3 1.15zm-94.45 1.85c1.55 3 5.65 16.2 5.65 18.15 0 3.15-2-.7-4.45-8.5-1.45-4.75-2.85-8.45-3.05-8.2-.25.2.7 3.85 2.05 8.15 2.65 8.35 2.85 9.65 1.65 9.65-.45 0-2.05-3.85-3.6-8.6-1.5-4.7-2.95-8.35-3.2-8.15-.2.25.75 3.7 2.1 7.75 1.4 4.05 2.5 7.7 2.5 8.2 0 1.8-1.7.65-2.75-1.95-1.05-2.5-1.1-2.5-.6-.25 1.2 5.15-.9.9-3.1-6.3-2.2-7.1-2.05-10.75.35-9.25.65.4 1.1-.05 1.1-1 0-1.45.25-1.5 1.7-.3s1.6 1.15 1-.4c-1.05-2.8 1.1-2 2.65 1zm3.25.65c.1 1.15 1.1 5.4 2.3 9.5 1.2 4.05 2 7.5 1.8 7.7-.2.2-1.6-3.55-3.1-8.35s-2.9-9.25-3.2-9.85c-.25-.6.1-1.05.8-1.05.75 0 1.35.9 1.4 2.05zm63.2 2.1c.2 2.35-.25 3.2-2 4-1.25.55-2.45 2-2.6 3.25-.2 1.25-.75 2.25-1.25 2.25-.55 0-.9-.35-.85-.75.5-3.2-.25-4.15-3-3.8-3.05.4-4.1-1.8-3.3-6.95.55-3.8 12.6-1.95 13 2zm-76.05 5.25c2.7 7.1 4.7 15.25 3.75 15.25-.25 0-1.8-4.55-3.55-10.15-1.7-5.6-3.35-10.75-3.65-11.5-.3-.75-.3-1.35 0-1.35s1.85 3.5 3.45 7.75zm42.85 4.1c.45 6.55-.85 8.25-2.7 3.45-.7-1.95-.7-3.45.1-5.15.75-1.7.8-2.75.05-3.5-.6-.6-1.05-1.75-1.05-2.55 0-4.7 3.2 2.25 3.6 7.75zm20.35-2.65c.75-.15 1.75.3 2.2 1 .65 1 .8 1 .85.05 0-.7.45-1.25 1-1.25s1 1.1 1 2.5c0 1.35-.25 2.5-.55 2.5-.9 0-6.8-3.15-9.8-5.25l-2.8-2 2.8-1.85 2.85-1.9.55 3.25c.3 2.05 1 3.15 1.9 2.95zm-70.25-1.05c2.95 2.8 3.1 8.05.3 10.85-2.1 2.1-8.4 2.8-9.5 1-.35-.55.15-.75 1.2-.4 1.45.45 1.45.3-.2-.7-1.1-.7-2.15-1.15-2.4-1-.65.45-2.05-2.3-2-3.9 0-1 .35-.8.9.5.8 1.85.85 1.85.95-.4 0-1.35.85-3.35 1.8-4.45 1.7-1.9 1.65-1.95-.25-1.3-1.95.65-1.95.65-.05-.85 2.75-2.15 6.55-1.85 9.25.65zm103.3.45c0 2.4-.25 2.6-3.05 2.05-2.25-.45-2.9-.3-2.45.6.35.7-.05.4-.9-.65-1.35-1.7-1.9-1.8-4.3-.7-2.25 1.05-2.9 1-3.75-.15-.6-.8-1.6-1.25-2.3-1-.7.25-1.25 0-1.25-.55s3.6-1.05 8.2-1.1c4.5-.05 8.4-.35 8.65-.6.9-.95 1.15-.5 1.15 2.1zm-44 4.3c1.9 1.6 3.15 3.25 2.75 3.65-.4.4-1.4.15-2.25-.55-3-2.5-1.4-.3 2.25 3.05 2.05 1.9 2.9 2.5 1.9 1.3-3.8-4.55.55-3.35 6.45 1.8 5.85 5.1 6 5.3 3.55 5.95-1.35.4-4.35 1.7-6.6 3l-4.1 2.3-3.1-3.05c-3-3.05-3-3.15-1.4-6.2.85-1.75 1.4-3.15 1.1-3.15-.25 0-1.05 1.1-1.75 2.4l-1.3 2.45-2.8-2.4c-2.65-2.3-2.75-2.65-2.1-8.9.75-7.2.8-7.25 7.4-1.65zm33.4 2.55c.9 1.2 1.85 1.25 5.1.35 3.25-.85 4.75-.75 8 .6 4.65 2 3.45 3.55-2.7 3.6-2.55 0-4.55.8-6.45 2.55-1.5 1.4-3.4 2.4-4.25 2.25-1.8-.35-3.35-6.8-2.05-8.4.5-.6.65-1.4.25-1.75-.35-.35-.25-.65.15-.65.45 0 1.35.65 1.95 1.45zm-2.7 9.8c1.75 6.45 2.3 11.75 1.2 11.75-1.35 0-2.5-3.6-3.35-10.25-.8-6.7.5-7.65 2.15-1.5zm12.85 6.35.65 5.15-4.15-.1c-2.5-.05-4.45.4-4.95 1.2-.55.85-1.1-.7-1.55-4.35-.85-6.55-1.15-5.95 3.95-7.2 4.95-1.2 5.2-1 6.05 5.3zm7.85-2.55c-.75 8.75-2.95 8.4-4.75-.8-.55-3.05-.45-3.25 2.25-3.25s2.8.2 2.5 4.05zm-126.4.5c0 1.35-5.55 4.5-7.7 4.4-1-.05 5.85-5.95 6.9-5.95.45 0 .8.7.8 1.55zm95.4.3c.7 1.15-7.1 3.45-8.55 2.55-1.7-1.05 1.95-3.4 5.3-3.4 1.5 0 2.95.4 3.25.85zm4.5 4.4c.75 2.05.45 2.3-3.2 3-2.2.35-5.85 1.6-8.05 2.7-4.1 2-5.65 1.9-5.65-.35 0-2.05 3.5-4.65 8.15-6.1 6.2-1.95 7.8-1.8 8.75.75zm1.9 4.95c2.35 2.35 1.15 3.55-4.05 4.2-2.9.4-6.75 1.15-8.6 1.75-4.55 1.45-6.35-.3-2.8-2.65 5.4-3.55 13.5-5.25 15.45-3.3zm25.5 2.55c-.35.95-1.2 2.65-1.9 3.75s-2.7 5.35-4.4 9.5c-5.65 13.65-5.75 13.75-13.7 9.9-4.1-1.95-4.3-2.3-4.3-6.4 0-6.1 1.2-9 2.1-5 .5 2.35.7 1.8.75-2.5.1-3.9-.15-5.05-.85-4-.7 1.1-.95.55-1-2.2 0-3.6.05-3.65 2.75-2.75 1.9.65 4.95.55 9.75-.45 10.1-2 11.55-1.95 10.8.15zM30.95 182.5c5 1.65 8.6 6.4 3.7 4.9-5.8-1.8-14.85-8.1-16.85-11.75-.65-1.2.7-.6 3.65 1.65 2.6 2 6.85 4.3 9.5 5.2zM50 178.35c0 2.05-4.1 4.05-5.1 2.5-1.25-1.95-1.1-2.65.8-3.7 1.95-1.1 4.3-.45 4.3 1.2zm128.25 2.5c-.4 2.75-.75 2.9-6.6 3.45-3.4.3-7.05.9-8.15 1.35-1.8.7-1.8.55.2-1.55 1.2-1.3 1.95-2.9 1.65-3.65-.55-1.4 2.05-2.05 9.25-2.3 3.9-.15 4.05-.05 3.65 2.7zm-135.4 3.5c.25 1.3-.2 1.75-1.5 1.5-1-.2-2-1.2-2.2-2.2-.25-1.3.2-1.75 1.5-1.5 1 .2 2 1.2 2.2 2.2zm131.9 5.3c2.65.7 3 2.35.5 2.35-1.5.05-1.55.15-.25 1 1.15.8 1.2 1.2.25 1.8-.9.6-.15 1.35 2.3 2.5 1.95.95 3.3 2.15 3 2.65-.3.5.25 1.15 1.3 1.5 1.05.35 2.7 1.5 3.7 2.6 1.8 1.95 1.8 2 0 1.3-1.3-.45-1.65-.35-1.15.45.45.8.15.95-1.1.5-1.65-.6-1.6-.4.2 1.75 1.15 1.35 1.3 1.9.4 1.2-2.05-1.6-3.25-.4-1.65 1.6.9 1.05.45 1-1.5-.3-2.2-1.4-2.55-2.1-1.65-3.2 1.45-1.7-.2-1.8-2.1-.1-1.1 1-1.1.85.05-.7 1.35-1.75 1.3-1.85-.5-1.2-1.1.4-1.6.4-1.2-.05.45-.45-1.55-1.55-4.5-2.45l-5.35-1.65 5.15.15c2.85.1 4.75.4 4.2.75-.5.3.25 1.1 1.65 1.75 3.15 1.4 3.8 1.45 3 .15-.35-.55.1-.7 1.05-.35 1.3.5 1.35.8.3 1.45-.75.5-.9.85-.35.85 6.4 0-3.6-6.3-12.25-7.7-3-.45-3.3-.7-1.7-1.35 1.9-.75 1.9-.75-.05-.95-1.4-.15-1.15-.4 1-.95l3-.75-2.8-.15c-4.05-.15-2.3-2.05 2.1-2.25l3.7-.15-3.25-.4c-1.8-.25-3.05-.85-2.7-1.35.65-1.1 3.85-1.2 7.2-.3zm-1.05 19.05c5.75 2.85 7.3 4.7 5.5 6.5-1.45 1.45-6.5-.65-10.9-4.5-6.05-5.35-3.45-6.3 5.4-2zm-12.95 7.1c-4.85 5.05-8.15 7.2-9.65 6.25-1-.6.05-2.15 3.8-5.8 3.8-3.65 5-5.4 4.45-6.7-.55-1.45-.15-1.35 2 .5l2.65 2.35-3.25 3.4zm6.1 5.05c3.55 3.55-.35 6.95-5.25 4.6l-3.75-1.75 2.8-2.3c3.5-2.85 3.85-2.9 6.2-.55zm13.95 1.4c.4 2.15-7.45 9.95-9.6 9.6-.95-.15-2.3.05-3 .55-2.5 1.5-2.6-.45-.15-2.1 1.35-.95 4.25-3.55 6.45-5.85 4.15-4.35 5.8-4.9 6.3-2.2zm-31.3-.25c.85 1.4-1.5 5.4-2.55 4.35-1-1-.1-5.35 1.1-5.35.45 0 1.1.45 1.45 1zm12.5 10.2c0 .5-.4.65-.9.35-.45-.3-1.45.15-2.1.95-3.35 4.05-6.15 1.2-2.9-2.9 2.1-2.65 5.9-1.6 5.9 1.6zm-19.5-1.1c.9 2.7.25 3.2-2 1.55-1-.75-1.5-1.85-1.1-2.5 1.1-1.75 2.4-1.4 3.1.95zm10 2.35c-.4 3.85-4.25 9.55-8.7 12.7-5.5 3.9-4.85 1.65 2.9-10.45 4.6-7.2 6.3-7.85 5.8-2.25zM133 263.5c0 1.8 2.65 2 3.35.25.3-.75.5-.5.55.55.1 2.15-2.1 3.1-5.3 2.3-1.8-.45-2.3-1.1-1.9-2.6.6-2.3 3.3-2.75 3.3-.5zm-1.2 9.95c1.4 1.4.5 18.05-1 18.35-2.8.55-4.8-4.8-4.8-12.85v-7.15l2.75.65c1.5.4 2.9.85 3.05 1z"/><path d="M88.75 142c4.7 2.85 3.95 9.85-1.05 10.1-1.8.1-1.85.2-.4.6 2.6.65 5.7-2.5 5.7-5.8 0-3.05-3.35-6.9-5.95-6.9-.85 0-.1.9 1.7 2zM191.5 187.05c-.9 4 .15 5.05 1.45 1.5 1.3-3.3 1.3-4.55.15-4.55-.55 0-1.25 1.4-1.6 3.05z"/></svg>